<svg aria-hidden="true" style="position: absolute; width: 0; height: 0; overflow: hidden;" version="1.1" xmlns="http://www.w3.org/2000/svg" xmlns:xlink="http://www.w3.org/1999/xlink">
<defs>
<symbol id="icon-github" viewBox="0 0 32 32">
<path  d="M16.049 31.913c-8.78 0-15.898-7.116-15.898-15.897 0-8.778 7.117-15.897 15.898-15.897 8.779 0 15.896 7.117 15.896 15.898 0 8.779-7.117 15.896-15.896 15.896zM11.8 29.597c1.341 0.42 2.769 0.646 4.249 0.646 1.47 0 2.888-0.223 4.222-0.637v-3.479c0-0.001 0-0.003 0-0.004 0-1.178-0.482-2.244-1.261-3.010l-0.001-0.001c4.669-0.821 6.623-3.666 6.623-7.050 0-1.643-0.546-3.163-1.619-4.382 0.606-1.885-0.023-3.496-0.165-3.864l-0.018-0.044c-1.788-0.163-3.642 1.169-4.017 1.453-1.103-0.297-2.355-0.46-3.76-0.46-1.398 0-2.646 0.156-3.738 0.451-0.156-0.122-2.156-1.672-4.081-1.5l-0.013 0.034c-0.138 0.346-0.8 2.009-0.149 3.941-1.060 1.215-1.6 2.722-1.6 4.361 0 3.379 1.941 6.22 6.598 7.054-0.55 0.535-0.953 1.218-1.143 1.985l-0.006 0.029c-0.865 0.216-2.569 0.434-3.445-0.861-1.208-1.785-2.252-2.444-3.275-1.917-0.228 0.262 0.066 0.459 0.484 0.741 0.375 0.251 0.847 0.569 1.136 1.061 0.043 0.072 0.085 0.198 0.138 0.359 0.309 0.934 1.002 3.035 4.84 2.585v2.509z"></path>
</symbol>
<symbol id="icon-phone" viewBox="0 0 32 32">
<path  d="M28.534 15.132h3.333c0-8.55-6.454-14.998-15.016-14.998v3.333c6.77 0 11.683 4.905 11.683 11.666z"></path>
<path  d="M16.866 10.134c3.506 0 5 1.495 5 5h3.334c0-5.375-2.958-8.334-8.334-8.334v3.334zM22.57 19.206c-0.295-0.269-0.69-0.434-1.122-0.434-0.469 0-0.893 0.193-1.196 0.505l-0 0-3.989 4.102c-0.96-0.184-2.89-0.785-4.877-2.766-1.986-1.989-2.588-3.924-2.766-4.877l4.098-3.99c0.312-0.303 0.506-0.727 0.506-1.196 0-0.433-0.165-0.827-0.436-1.123l0.001 0.001-6.158-6.77c-0.306-0.336-0.745-0.546-1.234-0.546-0.415 0-0.795 0.152-1.087 0.403l0.002-0.002-3.618 3.101c-0.288 0.289-0.46 0.674-0.483 1.082-0.025 0.416-0.502 10.286 7.152 17.943 6.676 6.675 15.040 7.163 17.342 7.163 0.337 0 0.544-0.010 0.598-0.014 0.408-0.022 0.792-0.195 1.080-0.485l3.1-3.618c0.25-0.29 0.402-0.67 0.402-1.086 0-0.488-0.21-0.927-0.544-1.232l-0.001-0.001-6.773-6.16z"></path>
</symbol>
<symbol id="icon-address" viewBox="0 0 35 32">
<path  d="M35.103 7.45l-4.211-3.236c-0.266-0.173-0.572-0.316-0.899-0.413l-0.025-0.006c-0.298-0.1-0.642-0.162-1-0.173l-0.005-0h-12.12l1.42 8.842h10.7c0.291 0 0.654-0.066 1.003-0.173 0.349-0.109 0.687-0.257 0.924-0.418l4.211-3.24c0.24-0.161 0.358-0.375 0.358-0.591s-0.118-0.43-0.356-0.592zM15.070 0.084h-1.773c-0.489 0.001-0.885 0.396-0.886 0.885v6.189h-5.915c-0.294 0-0.656 0.066-1.005 0.176-0.351 0.106-0.686 0.253-0.924 0.417l-4.211 3.236c-0.24 0.161-0.356 0.377-0.356 0.592s0.117 0.428 0.356 0.592l4.211 3.24c0.238 0.161 0.573 0.31 0.924 0.415 0.349 0.108 0.711 0.174 1.005 0.174h5.915v15.031c0 0.001 0 0.002 0 0.003 0 0.487 0.395 0.882 0.882 0.882 0.002 0 0.003 0 0.005 0h1.773c0.489-0 0.885-0.396 0.886-0.885v-30.063c0-0 0-0.001 0-0.002 0-0.488-0.395-0.883-0.883-0.883-0.001 0-0.002 0-0.004 0h0z"></path>
</symbol>
<symbol id="icon-mail" viewBox="0 0 47 32">
<path  d="M1.607 3.815l19.385 10.414c0.651 0.35 1.493 0.514 2.341 0.514s1.69-0.165 2.342-0.513l19.383-10.415c1.265-0.679 2.459-3.323 0.14-3.323h-43.729c-2.318 0-1.124 2.644 0.138 3.323zM45.646 9.51l-19.97 10.409c-0.879 0.459-1.494 0.514-2.342 0.514s-1.462-0.055-2.341-0.514c-0.881-0.46-18.438-9.664-19.872-10.412-1.009-0.527-0.997 0.091-0.997 0.566v18.85c0 1.086 1.462 2.585 2.585 2.585h41.354c1.12 0 2.585-1.499 2.585-2.585v-18.847c0-0.476 0.009-1.093-1.002-0.566z"></path>
</symbol>
<symbol id="icon-web" viewBox="0 0 32 32">
<path  d="M22.782 19.112c0.124-1.027 0.217-2.054 0.217-3.112s-0.093-2.085-0.216-3.112h5.256c0.25 0.932 0.397 2.003 0.405 3.107l0 0.005c0 1.073-0.155 2.116-0.405 3.112h-5.257zM20.029 27.761c0.872-1.59 1.606-3.433 2.109-5.37l0.037-0.169h4.589c-1.514 2.575-3.853 4.526-6.648 5.511l-0.087 0.027zM19.64 19.112h-7.28c-0.154-0.932-0.244-2.010-0.248-3.107v-0.005c0-1.058 0.094-2.1 0.248-3.112h7.28c0.141 1.012 0.249 2.054 0.249 3.112s-0.109 2.085-0.249 3.112zM16 28.382c-1.291-1.866-2.334-3.935-2.971-6.16h5.943c-0.638 2.225-1.68 4.294-2.971 6.16zM9.778 9.779h-4.542c1.499-2.582 3.837-4.537 6.634-5.512l0.086-0.026c-0.934 1.727-1.634 3.593-2.178 5.538zM5.236 22.222h4.542c0.544 1.944 1.244 3.812 2.178 5.538-2.877-1.012-5.212-2.964-6.688-5.479l-0.032-0.059zM3.96 19.112c-0.25-0.932-0.397-2.003-0.405-3.107l-0-0.005c0-1.073 0.156-2.116 0.405-3.112h5.258c-0.124 1.027-0.218 2.054-0.218 3.112s0.094 2.085 0.218 3.112h-5.258zM16 3.602c1.291 1.867 2.334 3.951 2.971 6.176h-5.943c0.638-2.225 1.68-4.309 2.971-6.176zM26.764 9.778h-4.589c-0.54-2.105-1.274-3.948-2.21-5.666l0.064 0.128c2.885 1.007 5.226 2.959 6.703 5.479l0.032 0.059zM16 0.444c-8.602 0-15.556 7-15.556 15.556 0 8.591 6.965 15.556 15.556 15.556s15.556-6.965 15.556-15.556c0-8.591-6.965-15.556-15.556-15.556v0z"></path>
</symbol>
</defs>
</svg>
